<?xml version="1.0" ?><!DOCTYPE svg  PUBLIC '-//W3C//DTD SVG 1.1//EN'  'http://www.w3.org/Graphics/SVG/1.1/DTD/svg11.dtd'><svg height="512px" style="enable-background:new 0 0 512 512;" version="1.1" viewBox="0 0 512 512" width="512px" xml:space="preserve" xmlns="http://www.w3.org/2000/svg" xmlns:xlink="http://www.w3.org/1999/xlink"><g id="army_x2C__military_x2C__war_x2C__weapon__x2C_navy_x2C__aviation_x2C___pistol__x2C__gun__x2C__gunshot__x2C_"><g><path d="M96.637,178.236c0,5.055,0.972,9.759,2.636,12.664c1.034,3.256,2.77,5.253,5.468,6.512    c1.034,4.012,2.563,6.009,4.353,6.009h3.472c1.583,0,4.083,0.917,5.054,1.816c0.549,0.899,1.79,1.79,4.291,1.925    c0.899,1.313,2.141,2.077,3.661,2.23c13.086,0.549,25.688,5.252,29.699,8.509c0.144,0.071,0.279,0.134,0.414,0.134    c1.322,0.279,3.265,0.549,5.684,0.837c0.342,0.611,0.899,1.025,1.583,1.179c10.316,1.87,17.872,4.632,21.397,24.087    c3.319,18.194,15.092,27.405,36.885,28.862c12.115,0.412,20.92-0.486,31.983-1.664c5.055-0.549,10.802-1.107,17.516-1.664    c8.932-0.414,11.278,0.557,13.222,1.322c0.692,0.342,1.376,0.619,2.348,0.764c4.371,2.141,6.655,3.939,7.555,8.166    c1.035,4.498,17.719,70.336,17.926,71.02c0.072,0.342,0.414,0.629,0.828,0.629h1.591c0.136,0,0.631,0,1.322,0l0.414,1.729    c-2.914-0.703-5.685-1.314-7.267-1.314c-1.386,0-2.15,0.611-2.573,1.17c-1.447,1.941-0.477,5.396-0.404,5.756    c0.135,0.342,0.404,0.611,0.765,0.611c0.135,0,13.978,1.385,22.485,1.385h44.998c0.701,0,1.179-0.277,1.592-0.754    c0.765-0.973,0.63-2.555,0.423-3.32l-1.043-3.885h5.468l3.185,6.16c0.135,0.279,0.423,0.414,0.765,0.414h5.055    c0.414,0,0.818-0.342,0.818-0.828l0.081-3.256c0-0.125,0-0.342-0.081-0.412l-1.727-3.4c5.675,0.152,21.046,0.152,23.951-2.969    c2.419-1.51,3.328-5.539,2.779-12.322c-1.736-13.779-5.55-20.902-15.659-39.861c-2.617-5.002-5.604-10.523-9.129-17.322    c-5.954-11.549-9.695-21.174-10.938-28.513c-0.135-0.827-0.206-1.601-0.278-2.284c-0.271-2.842-0.135-5.262,0.485-7.339    c0.279-1.035,0.621-1.799,0.899-2.348c0.136-0.208,0.351-0.423,0.405-0.558c0.152-0.135,0.152-0.207,0.216-0.279    c0.278-0.342,0.207-0.827-0.135-1.169l-0.765-0.63c-0.135-0.072-0.271-0.135-0.342-0.135l-0.765-0.135    c3.525-5.127,7.618-8.526,17.232-11.567c5.325-2.086,7.618-5.396,6.854-10.036c-0.683-4.363-1.933-5.325-4.56-7.556    c-0.288-0.27-0.63-0.549-1.043-0.891c-3.193-2.689-8.932-7.96-9.345-8.374c-0.063,0-0.136-0.135-0.271-0.216    c-0.144-0.549-0.351-1.024-0.63-1.52l-8.931-15.155c0-0.072,0-0.072-0.072-0.144c-0.063-0.055-0.135-0.127-0.207-0.271    c0.279-1.25,1.179-2.627,1.521-3.184c2.078-2.078,3.265-4.839,3.265-7.753c0-1.529-0.288-3.059-0.899-4.426    c-0.153-0.288-0.36-0.423-0.63-0.494v-0.693c0-0.27-0.206-0.558-0.494-0.683c-0.135-0.145-0.342-0.145-0.54-0.145l-0.144-0.701    c-0.063-0.27-0.271-0.468-0.558-0.611c-0.207,0-0.342,0-0.549,0l-0.271-0.63c-0.071-0.278-0.359-0.468-0.701-0.468    c-0.135-0.081-0.342,0-0.485,0.054l-0.342-0.558c-0.207-0.27-0.485-0.413-0.756-0.413c-0.215,0-0.422,0.071-0.558,0.144    l-0.413-0.486c-0.216-0.269-0.558-0.342-0.828-0.269c-0.207,0-0.359,0.134-0.494,0.269l-0.549-0.485    c-0.271-0.197-0.558-0.278-0.828-0.126c-0.207,0.055-0.359,0.198-0.494,0.343l-0.611-0.343c-0.279-0.216-0.63-0.216-0.837,0    c-0.144,0.055-0.206,0.126-0.279,0.198l-0.764-0.198c-0.27-0.152-0.612-0.071-0.827,0.126c-0.072,0.072-0.136,0.217-0.207,0.351    l-0.692-0.134c-0.352-0.073-0.621,0.054-0.828,0.269c-0.063,0.145-0.144,0.289-0.144,0.414h-0.756    c-0.27,0-0.558,0.144-0.692,0.423c-0.144,0.135-0.144,0.342-0.144,0.549l-0.621,0.144c-0.342,0-0.549,0.198-0.684,0.549    c-0.071,0.135-0.071,0.342,0,0.549l-0.629,0.216c-0.279,0.126-0.478,0.342-0.549,0.63c-0.081,0.197,0,0.396,0.071,0.611    l-0.629,0.359c-0.207,0.126-0.414,0.396-0.414,0.747c0,0.206,0.054,0.351,0.207,0.566l-0.495,0.404    c-0.135,0.136-0.27,0.279-0.342,0.414c-0.207,0.765-0.422,1.601-0.477,2.348c-2.356-2.267-5.271-7.321-5.954-9.191v-0.073    c-0.288-0.485-0.558-0.898-0.837-1.24c-0.422-1.529-2.842-4.372-4.29-6.027c-0.216-0.215-0.422-0.287-0.692-0.287h-1.448    c-0.359,0-0.701,0.216-0.836,0.566l-0.972,2.482c-0.135,0.207-0.765,0.972-1.87,1.053H123.089l-1.808-2.572    c-0.135-0.271-0.414-0.423-0.764-0.342l-3.939,0.342c-0.144,0-2.698,0.278-7.061,2.572h-2.078c-0.197,0-0.422,0.125-0.62,0.27    c-0.414,0.414-0.755,0.972-1.178,1.593c0,0.063-0.207,0.404-0.342,0.764l-0.207,0.27c-0.081,0.217-0.135,0.343-0.288,0.631    c-2.842,1.313-4.56,3.525-5.604,7.051C97.609,168.676,96.637,173.325,96.637,178.236L96.637,178.236z M375.256,171.095    L375.256,171.095c-0.692,1.124-1.871,1.817-3.185,1.817c-2.141,0-3.804-1.664-3.876-3.813c0.765-0.899,1.942-1.457,3.111-1.457    C373.385,167.642,375.049,169.17,375.256,171.095L375.256,171.095z M258.488,256.936L258.488,256.936    c-0.558,0.557-0.899,1.115-1.116,1.664c-11.34,8.58-27.818,8.104-42.569,6.439c-8.229-0.891-15.848-5.334-20.417-11.845    c-4.848-11.207-3.319-22.145,4.218-29.268c6.44-6.098,15.578-6.925,26.029-7.267c0.207,0,0.414-0.072,0.548-0.216    c9.138,9.695,16.972,31.911-10.658,45.763c-1.583,0.684-1.169,1.941-0.063,1.941c15.092,0,29.492-10.253,27.621-30.328    c6.575-3.669,9.615-9.21,10.793-11.979c1.664,1.115,3.184,2.355,4.496,3.813c5.748,6.089,6.72,14.876,6.927,21.946    C263.057,250.434,261.114,253.482,258.488,256.936L258.488,256.936z M308.104,157.819L308.104,157.819c20.021,0,33.297,0,33.647,0    c0.144,0,0.207,0,0.351,0H308.104z" style="fill:#010101;"/></g></g><g id="Layer_1"/></svg>